<svg id="Capa_1" enable-background="new 0 0 512 512" height="512" viewBox="0 0 512 512" width="512" xmlns="http://www.w3.org/2000/svg"><g><path d="m71.393 47.377c0-1.153.938-2.09 2.091-2.09h306.188v-42.196c0-1.707-1.384-3.091-3.091-3.091h-347.384c-1.707 0-3.091 1.384-3.091 3.091v461.532c0 1.707 1.384 3.091 3.091 3.091h42.196z" fill="#fac600"/><path d="m70.393 47.377c0-1.707 1.384-3.091 3.09-3.091h4.666v-41.195c0-1.707 1.384-3.091 3.091-3.091h-52.043c-1.707 0-3.09 1.384-3.09 3.091v461.532c0 1.707 1.384 3.091 3.09 3.091h41.196z" fill="#e8b800"/><g><path d="m343.48 465.473c-6.424 0-11.65-5.227-11.65-11.651v-103.462c0-6.424 5.227-11.651 11.65-11.651h80.478v-18.193h-80.478c-6.424 0-11.65-5.227-11.65-11.651v-103.461c0-6.424 5.227-11.651 11.65-11.651h80.478v-146.376c0-1.707-1.384-3.091-3.091-3.091h-347.383c-1.707 0-3.09 1.384-3.09 3.091v461.532c0 1.707 1.384 3.091 3.09 3.091h347.384c1.707 0 3.091-1.384 3.091-3.091v-43.436z" fill="#fff3de"/></g><g><path d="m113.993 508.909v-461.532c0-1.707 1.384-3.091 3.091-3.091h-43.6c-1.707 0-3.091 1.384-3.091 3.091v461.532c0 1.707 1.384 3.091 3.091 3.091h43.6c-1.708 0-3.091-1.384-3.091-3.091z" fill="#ffe5c2"/></g><g><path d="m309.036 119.066h-123.722c-4.143 0-7.5-3.358-7.5-7.5s3.357-7.5 7.5-7.5h123.722c4.143 0 7.5 3.358 7.5 7.5s-3.357 7.5-7.5 7.5z" fill="#f6a96c"/></g><g><g><path d="m347.804 177.783h-201.256c-4.143 0-7.5-3.358-7.5-7.5s3.357-7.5 7.5-7.5h201.256c4.143 0 7.5 3.358 7.5 7.5s-3.358 7.5-7.5 7.5z" fill="#f6a96c"/></g><g><path d="m331.83 208.24h-84.732c-4.143 0-7.5 3.358-7.5 7.5s3.357 7.5 7.5 7.5h84.732z" fill="#f6a96c"/></g><g><path d="m218.254 223.24h-71.706c-4.143 0-7.5-3.358-7.5-7.5s3.357-7.5 7.5-7.5h71.706c4.143 0 7.5 3.358 7.5 7.5s-3.358 7.5-7.5 7.5z" fill="#f6a96c"/></g><g><path d="m331.83 253.697h-185.282c-4.143 0-7.5 3.358-7.5 7.5s3.357 7.5 7.5 7.5h185.282z" fill="#f6a96c"/></g><g><path d="m331.83 308.865v-9.71h-185.282c-4.143 0-7.5 3.358-7.5 7.5s3.357 7.5 7.5 7.5h186.565c-.814-1.59-1.283-3.384-1.283-5.29z" fill="#ca6e59"/></g><g><path d="m331.83 350.36c0-2.091.561-4.05 1.53-5.749h-42.994c-4.143 0-7.5 3.358-7.5 7.5s3.357 7.5 7.5 7.5h41.464z" fill="#ca6e59"/></g><g><path d="m261.521 359.612h-114.973c-4.143 0-7.5-3.358-7.5-7.5s3.357-7.5 7.5-7.5h114.974c4.143 0 7.5 3.358 7.5 7.5s-3.358 7.5-7.501 7.5z" fill="#ca6e59"/></g><g><path d="m331.83 390.069h-185.282c-4.143 0-7.5 3.358-7.5 7.5s3.357 7.5 7.5 7.5h185.282z" fill="#ca6e59"/></g><g><path d="m331.83 435.526h-185.282c-4.143 0-7.5 3.358-7.5 7.5s3.357 7.5 7.5 7.5h185.282z" fill="#ca6e59"/></g></g><g><g><path d="m446.942 458.973h-103.461c-2.845 0-5.151-2.306-5.151-5.151v-103.461c0-2.845 2.306-5.151 5.151-5.151h103.462c2.845 0 5.151 2.306 5.151 5.151v103.462c-.001 2.844-2.307 5.15-5.152 5.15z" fill="#4fc123"/></g><g><path d="m372.781 453.822v-103.461c0-2.845 2.306-5.151 5.151-5.151h-34.451c-2.845 0-5.151 2.306-5.151 5.151v103.462c0 2.845 2.306 5.151 5.151 5.151h34.451c-2.845-.001-5.151-2.307-5.151-5.152z" fill="#47a920"/></g><g><path d="m446.942 466.473h-103.462c-6.976 0-12.65-5.675-12.65-12.651v-103.462c0-6.976 5.675-12.651 12.65-12.651h103.462c6.976 0 12.651 5.675 12.651 12.651v103.462c.001 6.976-5.675 12.651-12.651 12.651zm-101.112-15h98.764v-98.764h-98.764z" fill="#68ca44"/></g><g><path d="m401.939 428.552c-1.919 0-3.839-.732-5.304-2.197l-33.251-33.25c-2.929-2.929-2.929-7.678 0-10.606 2.93-2.929 7.678-2.929 10.607 0l27.947 27.947 71.15-71.15c2.931-2.93 7.679-2.929 10.607 0s2.929 7.678 0 10.606l-76.454 76.454c-1.463 1.463-3.383 2.196-5.302 2.196z" fill="#3675bb"/></g></g><g><g><path d="m446.942 314.016h-103.461c-2.845 0-5.151-2.306-5.151-5.151v-103.461c0-2.845 2.306-5.151 5.151-5.151h103.462c2.845 0 5.151 2.306 5.151 5.151v103.462c-.001 2.844-2.307 5.15-5.152 5.15z" fill="#4fc123"/></g><g><path d="m372.781 308.865v-103.461c0-2.845 2.306-5.151 5.151-5.151h-34.451c-2.845 0-5.151 2.306-5.151 5.151v103.462c0 2.845 2.306 5.151 5.151 5.151h34.451c-2.845-.001-5.151-2.307-5.151-5.152z" fill="#47a920"/></g><g><path d="m446.942 321.517h-103.462c-6.976 0-12.65-5.675-12.65-12.651v-103.462c0-6.976 5.675-12.651 12.65-12.651h103.462c6.976 0 12.651 5.675 12.651 12.651v103.461c.001 6.976-5.675 12.652-12.651 12.652zm-101.112-15h98.764v-98.764h-98.764z" fill="#68ca44"/></g><g><path d="m401.939 283.595c-1.919 0-3.839-.732-5.304-2.197l-33.251-33.25c-2.929-2.929-2.929-7.678 0-10.606 2.93-2.929 7.678-2.929 10.607 0l27.947 27.947 71.15-71.151c2.93-2.929 7.678-2.929 10.607 0s2.929 7.678 0 10.606l-76.454 76.454c-1.463 1.465-3.383 2.197-5.302 2.197z" fill="#3675bb"/></g></g></g></svg>